<svg xmlns="http://www.w3.org/2000/svg" width="32" height="40" viewBox="0 0 32 40">
  <defs>
    <style>
      .cls-1 {
        fill: #464646;
        fill-rule: evenodd;
      }
    </style>
  </defs>
  <path id="rocket" class="cls-1" d="M1693.78,1759.17s0.44-2.31-2.3-5.12a43.232,43.232,0,0,0,3.04-12.35s5.48,1.08,5.48,5.76A14.077,14.077,0,0,1,1693.78,1759.17Zm-15.11-2.81s-3.67-10.18-3.67-14.41a20.618,20.618,0,0,1,.63-5.12h16.73a21.185,21.185,0,0,1,.63,5.13c0,4.16-3.66,14.4-3.66,14.4h-10.66Zm5.32-17.2a2.975,2.975,0,1,0,3.4,2.94A3.206,3.206,0,0,0,1683.99,1739.16Zm-0.74-13.15V1722h1.33v3.91a18.216,18.216,0,0,1,7.47,9.82h-16.12A18.067,18.067,0,0,1,1683.25,1726.01Zm-9.03,33.16a14.077,14.077,0,0,1-6.22-11.71c0-4.68,5.48-5.76,5.48-5.76a43.232,43.232,0,0,0,3.04,12.35C1673.78,1756.86,1674.22,1759.17,1674.22,1759.17Zm12.02,0.59-1.11-.96-1.18,3.2-1.41-3.2-0.96,1.66-1.41-3.01h7.63Z" transform="translate(-1668 -1722)"/>
</svg>
